<?xml version="1.0" encoding="UTF-8"?>
<svg xmlns="http://www.w3.org/2000/svg" width="874" height="733" viewBox="0 0 874 733" role="img" aria-labelledby="title desc">
  <title id="title">Live Flight Ops Dashboard logo</title>
  <desc id="desc">Minimal white airplane crossing a location pin with a curved flight path.</desc>
  <path d="M 610.00,352.00 L 607.00,352.00 L 585.00,366.00 L 580.00,368.00 L 563.00,379.00 L 558.00,381.00 L 550.00,395.00 L 535.00,416.00 L 514.00,439.00 L 513.00,439.00 L 498.00,453.00 L 486.00,462.00 L 470.00,472.00 L 452.00,481.00 L 450.00,481.00 L 442.00,485.00 L 436.00,487.00 L 433.00,487.00 L 429.00,489.00 L 426.00,489.00 L 421.00,491.00 L 411.00,492.00 L 410.00,493.00 L 402.00,493.00 L 401.00,494.00 L 373.00,494.00 L 372.00,493.00 L 363.00,493.00 L 362.00,492.00 L 357.00,492.00 L 356.00,491.00 L 347.00,490.00 L 346.00,489.00 L 343.00,489.00 L 342.00,488.00 L 339.00,488.00 L 328.00,484.00 L 322.00,483.00 L 312.00,488.00 L 305.00,490.00 L 300.00,493.00 L 290.00,496.00 L 285.00,499.00 L 269.00,504.00 L 258.00,509.00 L 235.00,516.00 L 235.00,519.00 L 239.00,526.00 L 242.00,529.00 L 253.00,546.00 L 259.00,553.00 L 263.00,560.00 L 287.00,592.00 L 342.00,659.00 L 387.00,708.00 L 390.00,708.00 L 410.00,687.00 L 410.00,686.00 L 428.00,667.00 L 428.00,666.00 L 441.00,652.00 L 441.00,651.00 L 473.00,614.00 L 518.00,555.00 L 543.00,518.00 L 544.00,515.00 L 547.00,512.00 L 548.00,509.00 L 552.00,504.00 L 554.00,499.00 L 562.00,487.00 L 564.00,482.00 L 566.00,480.00 L 578.00,456.00 L 580.00,454.00 L 593.00,428.00 L 593.00,426.00 L 599.00,415.00 L 599.00,413.00 L 604.00,403.00 L 605.00,396.00 L 606.00,395.00 L 606.00,387.00 L 607.00,386.00 L 607.00,378.00 L 608.00,377.00 L 608.00,370.00 L 609.00,369.00 Z M 542.00,346.00 L 537.00,347.00 L 534.00,349.00 L 532.00,349.00 L 529.00,351.00 L 519.00,354.00 L 504.00,361.00 L 492.00,365.00 L 487.00,368.00 L 480.00,370.00 L 471.00,375.00 L 469.00,375.00 L 464.00,378.00 L 462.00,378.00 L 457.00,381.00 L 448.00,384.00 L 441.00,388.00 L 439.00,388.00 L 432.00,392.00 L 430.00,392.00 L 425.00,395.00 L 416.00,398.00 L 407.00,403.00 L 405.00,403.00 L 400.00,406.00 L 391.00,409.00 L 382.00,414.00 L 373.00,417.00 L 364.00,422.00 L 362.00,422.00 L 348.00,429.00 L 341.00,431.00 L 327.00,438.00 L 320.00,440.00 L 315.00,443.00 L 308.00,445.00 L 303.00,448.00 L 301.00,448.00 L 278.00,458.00 L 273.00,459.00 L 270.00,461.00 L 265.00,462.00 L 254.00,467.00 L 246.00,469.00 L 243.00,471.00 L 232.00,474.00 L 229.00,476.00 L 202.00,485.00 L 199.00,485.00 L 193.00,488.00 L 190.00,488.00 L 183.00,491.00 L 180.00,491.00 L 156.00,499.00 L 149.00,500.00 L 138.00,504.00 L 135.00,504.00 L 134.00,505.00 L 123.00,507.00 L 119.00,509.00 L 116.00,509.00 L 115.00,510.00 L 112.00,510.00 L 111.00,511.00 L 108.00,511.00 L 99.00,514.00 L 95.00,514.00 L 94.00,515.00 L 91.00,515.00 L 90.00,516.00 L 87.00,516.00 L 78.00,519.00 L 65.00,521.00 L 64.00,522.00 L 61.00,522.00 L 52.00,525.00 L 47.00,525.00 L 46.00,526.00 L 43.00,526.00 L 38.00,528.00 L 34.00,528.00 L 29.00,530.00 L 24.00,530.00 L 24.00,532.00 L 72.00,532.00 L 73.00,531.00 L 90.00,531.00 L 91.00,530.00 L 113.00,529.00 L 114.00,528.00 L 121.00,528.00 L 122.00,527.00 L 129.00,527.00 L 130.00,526.00 L 143.00,525.00 L 144.00,524.00 L 149.00,524.00 L 150.00,523.00 L 155.00,523.00 L 156.00,522.00 L 160.00,522.00 L 161.00,521.00 L 180.00,518.00 L 181.00,517.00 L 204.00,512.00 L 208.00,510.00 L 222.00,507.00 L 235.00,502.00 L 238.00,502.00 L 256.00,496.00 L 259.00,494.00 L 270.00,491.00 L 278.00,487.00 L 283.00,486.00 L 286.00,484.00 L 291.00,483.00 L 296.00,480.00 L 308.00,476.00 L 322.00,469.00 L 329.00,467.00 L 392.00,436.00 L 394.00,434.00 L 416.00,423.00 L 418.00,421.00 L 423.00,419.00 L 425.00,417.00 L 432.00,414.00 L 446.00,405.00 L 465.00,395.00 L 467.00,393.00 L 510.00,368.00 L 523.00,359.00 L 541.00,349.00 Z M 705.00,266.00 L 702.00,266.00 L 700.00,267.00 L 698.00,269.00 L 691.00,272.00 L 684.00,277.00 L 675.00,281.00 L 673.00,283.00 L 666.00,286.00 L 659.00,291.00 L 648.00,296.00 L 646.00,298.00 L 641.00,300.00 L 639.00,302.00 L 629.00,307.00 L 629.00,313.00 L 628.00,314.00 L 628.00,323.00 L 627.00,324.00 L 626.00,338.00 L 625.00,339.00 L 625.00,346.00 L 624.00,347.00 L 624.00,355.00 L 623.00,356.00 L 623.00,363.00 L 622.00,364.00 L 622.00,371.00 L 621.00,372.00 L 621.00,381.00 L 624.00,381.00 L 626.00,379.00 L 630.00,378.00 L 644.00,371.00 L 646.00,369.00 L 653.00,355.00 L 657.00,350.00 L 659.00,345.00 L 661.00,343.00 L 662.00,340.00 L 664.00,338.00 L 665.00,335.00 L 667.00,333.00 L 668.00,330.00 L 670.00,328.00 L 671.00,325.00 L 673.00,323.00 L 674.00,320.00 L 679.00,313.00 L 681.00,308.00 L 683.00,306.00 L 684.00,303.00 L 686.00,301.00 L 687.00,298.00 L 692.00,291.00 L 699.00,277.00 L 704.00,270.00 Z M 849.00,155.00 L 840.00,150.00 L 828.00,149.00 L 827.00,148.00 L 810.00,149.00 L 809.00,150.00 L 796.00,152.00 L 772.00,161.00 L 742.00,176.00 L 740.00,178.00 L 725.00,185.00 L 723.00,187.00 L 710.00,193.00 L 708.00,195.00 L 691.00,203.00 L 683.00,208.00 L 517.00,199.00 L 504.00,207.00 L 503.00,210.00 L 592.00,253.00 L 592.00,256.00 L 560.00,274.00 L 558.00,276.00 L 551.00,279.00 L 532.00,291.00 L 527.00,293.00 L 514.00,302.00 L 509.00,301.00 L 502.00,297.00 L 500.00,297.00 L 467.00,282.00 L 460.00,280.00 L 446.00,273.00 L 444.00,273.00 L 426.00,283.00 L 426.00,286.00 L 471.00,329.00 L 471.00,332.00 L 445.00,353.00 L 445.00,355.00 L 471.00,353.00 L 472.00,352.00 L 481.00,351.00 L 482.00,350.00 L 501.00,346.00 L 529.00,337.00 L 532.00,335.00 L 537.00,334.00 L 547.00,329.00 L 554.00,327.00 L 563.00,322.00 L 565.00,322.00 L 606.00,301.00 L 621.00,292.00 L 636.00,285.00 L 638.00,283.00 L 671.00,266.00 L 673.00,264.00 L 704.00,248.00 L 706.00,246.00 L 717.00,241.00 L 726.00,235.00 L 737.00,230.00 L 739.00,228.00 L 748.00,224.00 L 750.00,222.00 L 759.00,218.00 L 761.00,216.00 L 768.00,213.00 L 770.00,211.00 L 816.00,186.00 L 837.00,171.00 L 849.00,159.00 Z M 567.00,101.00 L 548.00,83.00 L 530.00,69.00 L 497.00,49.00 L 456.00,33.00 L 435.00,28.00 L 403.00,24.00 L 375.00,24.00 L 348.00,27.00 L 322.00,33.00 L 301.00,40.00 L 261.00,60.00 L 243.00,72.00 L 226.00,86.00 L 206.00,106.00 L 189.00,127.00 L 176.00,147.00 L 161.00,176.00 L 147.00,217.00 L 142.00,243.00 L 140.00,264.00 L 141.00,304.00 L 144.00,325.00 L 151.00,355.00 L 161.00,384.00 L 171.00,407.00 L 198.00,458.00 L 202.00,459.00 L 259.00,434.00 L 259.00,432.00 L 245.00,417.00 L 229.00,396.00 L 211.00,364.00 L 205.00,350.00 L 196.00,319.00 L 192.00,287.00 L 194.00,248.00 L 200.00,222.00 L 207.00,202.00 L 217.00,181.00 L 231.00,159.00 L 256.00,131.00 L 277.00,114.00 L 293.00,104.00 L 330.00,88.00 L 370.00,80.00 L 414.00,81.00 L 438.00,86.00 L 456.00,92.00 L 483.00,105.00 L 497.00,114.00 L 520.00,133.00 L 536.00,150.00 L 552.00,172.00 L 559.00,185.00 L 620.00,188.00 L 619.00,182.00 L 611.00,164.00 L 598.00,141.00 L 581.00,117.00 Z" fill="#FFFFFF" fill-rule="evenodd" clip-rule="evenodd"/>
</svg>
